<svg width="192" height="33" viewBox="0 0 192 33" fill="none" xmlns="http://www.w3.org/2000/svg">
<g clip-path="url(#clip0_629_58396)">
<path d="M47.6652 16.8297C50.6644 15.8327 51.2093 13.3129 51.2038 11.2617C51.1984 8.12626 48.9864 5.41581 42.4378 5.41581L30.2148 5.41309C30.2148 5.41309 30.2148 28.2789 30.2148 28.9654C30.8877 28.9654 42.4078 28.9654 42.4078 28.9654C48.9946 28.9654 51.419 25.5821 51.419 22.1961C51.4163 18.0936 47.6652 16.8297 47.6652 16.8297ZM36.0117 10.5371H44.2084H44.2411L44.271 10.5425C45.2 10.706 45.8755 11.4987 45.8755 12.4248C45.8755 13.3728 45.1509 14.2663 44.1948 14.3971L36.0171 14.4107L36.0117 10.5371ZM43.8488 23.4764H36.0144V19.5319H44.0177H44.0395L44.0586 19.5347C45.0583 19.6491 45.8129 20.4799 45.8129 21.466C45.8129 22.542 44.9167 23.46 43.8488 23.4764Z" fill="#4D4D4D"/>
<path d="M78.793 5.41309H99.4496L99.4387 10.5534H84.5326L84.5462 14.3508H97.9841V19.5183H84.5462V23.6262H99.4523L99.4496 29.0117C99.4496 29.0117 79.4767 29.0117 78.793 29.0117C78.793 28.3252 78.793 5.41309 78.793 5.41309Z" fill="#4D4D4D"/>
<path d="M66.7699 5.44434H54.2773V29.0048C54.2773 29.0048 59.4204 29.0048 60.0142 29.0048C60.0142 28.3429 60.0142 19.4706 60.0142 19.4706L66.3314 19.4651C68.1401 19.4924 69.5485 20.9743 69.5485 22.8021V28.983L75.1628 28.9803L75.1519 21.3774C75.1519 17.8525 71.7495 16.8119 71.7495 16.8119C71.7495 16.8119 75.2282 15.7713 75.2282 11.6062C75.2282 6.51489 70.8506 5.44434 66.7699 5.44434ZM69.8999 12.7557C69.7964 13.5294 69.0227 14.3711 68.0557 14.3711L59.9924 14.3738V10.601H68.0584C69.0227 10.601 69.7773 11.3093 69.8999 12.2409V12.7557Z" fill="#4D4D4D"/>
<path d="M26.4902 23.3141C26.4085 23.3168 18.6504 23.4667 15.9699 23.2052C11.6577 22.7829 10.1267 19.5876 10.1267 16.9779C10.1267 13.7254 12.3441 11.3337 15.7792 10.8842C17.4136 10.669 26.3459 10.7725 26.4412 10.7725L26.6292 10.7752L26.6482 5.41699H26.4603L16.3485 5.43606C15.2235 5.50416 13.3548 5.61857 11.4452 6.40038C9.60917 7.24211 8.01287 8.53333 6.81973 10.1405C5.29969 12.1863 4.49609 14.6162 4.49609 17.1632C4.49609 17.9641 4.55875 18.7595 4.6895 19.5222C5.41683 23.0935 7.75953 26.0518 11.1156 27.6399C12.2488 28.1385 13.9977 28.7377 17.5253 28.9339C17.5335 28.9339 19.4267 28.9747 19.4267 28.9747C19.4267 28.9775 26.4766 28.9829 26.4766 28.9829H26.6619L26.6809 23.3114L26.4902 23.3141Z" fill="#4D4D4D"/>
<path d="M116.367 16.4537H111.831V16.0342C112.85 16.0342 113.253 15.9607 113.253 15.1053V6.7615C113.253 5.90614 112.853 5.8326 111.831 5.8326V5.41309H116.367V5.8326C115.329 5.8326 114.929 5.90614 114.929 6.7615V15.1053C114.929 15.9607 115.329 16.0342 116.367 16.0342V16.4537ZM120.793 16.4537H117.023V16.0724C117.879 16.0724 118.099 15.9988 118.099 15.1081V10.0249C118.099 9.13144 117.881 9.07696 117.023 9.07696V8.69559H119.701V10.2075C120.047 9.49647 120.957 8.51308 122.196 8.51308C123.817 8.51308 124.564 9.71439 124.564 11.1718V15.1053C124.564 15.9988 124.782 16.0696 125.64 16.0696V16.451H121.886V16.0696C122.741 16.0696 122.962 15.9961 122.962 15.1053V11.4796C122.962 10.1502 122.398 9.43926 121.341 9.43926C120.595 9.43926 119.974 9.96773 119.701 10.5698V15.1053C119.701 15.9988 119.938 16.0696 120.793 16.0696V16.4537ZM129.391 16.6363L126.421 10.0249C126.056 9.22406 125.967 9.07696 125.166 9.07696V8.69559H129.009V9.07696C128.353 9.07696 127.952 9.11237 127.952 9.49647C127.952 9.64084 128.007 9.80701 128.097 10.044L129.919 14.4161L131.633 10.044C131.742 9.80701 131.777 9.64357 131.777 9.49647C131.777 9.13144 131.431 9.07696 130.701 9.07696V8.69559H133.542V9.07696C132.703 9.07696 132.594 9.16686 132.232 10.0249L129.519 16.6363H129.391ZM137.241 16.6363C135.147 16.6363 133.398 14.9964 133.398 12.6455C133.398 10.2592 135.166 8.51035 136.95 8.51035C139.045 8.51035 139.974 10.1312 139.974 11.643H134.91C134.91 11.752 134.91 11.861 134.91 11.9699C134.91 14.1001 136.149 15.7237 137.988 15.7237C138.789 15.7237 139.41 15.4322 139.9 14.8139L140.102 15.0154C139.407 16.0887 138.334 16.6363 137.241 16.6363ZM134.964 11.2072H138.481C138.426 9.91325 137.952 8.98434 136.934 8.98434C135.928 8.98434 135.163 9.76888 134.964 11.2072ZM145.147 14.8493C145.147 14.2118 144.708 13.9204 144.035 13.5744L142.687 12.8825C141.848 12.4439 141.156 11.8446 141.156 10.7877C141.156 9.43926 142.267 8.51035 143.651 8.51035C144.49 8.51035 145.054 8.92986 145.346 8.92986C145.528 8.92986 145.602 8.78548 145.692 8.5839H145.909L146.054 10.9348L145.743 10.9538C145.506 9.64357 144.596 8.968 143.703 8.968C142.883 8.968 142.393 9.4774 142.393 10.1884C142.393 10.8449 142.867 11.1527 143.523 11.4987L144.744 12.117C145.637 12.5719 146.383 13.1549 146.383 14.2854C146.383 15.6338 145.218 16.6363 143.725 16.6363C142.578 16.6363 141.976 16.0179 141.72 16.0179C141.537 16.0179 141.393 16.274 141.338 16.5109H141.082L140.954 13.8523L141.3 13.8332C141.483 15.1271 142.431 16.1459 143.687 16.1459C144.58 16.1432 145.147 15.7073 145.147 14.8493ZM149.481 6.65254H149.625V8.72828C150.208 8.72828 151.646 8.70921 152.175 8.65473L152.066 9.25675H149.625V14.2472C149.625 15.1407 150.006 15.7945 150.865 15.7945C151.428 15.7945 151.812 15.5385 152.194 15.01L152.45 15.2116C151.886 16.1214 151.121 16.6335 150.083 16.6335C148.936 16.6335 148.023 15.7945 148.023 14.5741L148.078 9.25403H147.04V9.01703C148.007 8.36598 148.898 7.49155 149.481 6.65254ZM156.457 16.4537H152.687V16.0724C153.542 16.0724 153.763 15.9988 153.763 15.1081V10.0249C153.763 9.13144 153.545 9.07696 152.687 9.07696V8.69559H155.365V10.2075C155.711 9.49647 156.566 8.51308 157.825 8.51308C159.099 8.51308 159.791 9.25947 160.028 10.2973C160.374 9.58636 161.268 8.51308 162.578 8.51308C164.199 8.51308 164.874 9.71439 164.874 11.1718V15.1053C164.874 15.9988 165.092 16.0696 165.967 16.0696V16.451H162.213V16.0696C163.052 16.0696 163.27 15.9961 163.27 15.1053V11.4796C163.27 10.1502 162.761 9.43926 161.723 9.43926C160.957 9.43926 160.374 10.0222 160.083 10.6242C160.102 10.8067 160.118 10.9893 160.118 11.1718V15.1053C160.118 15.9988 160.336 16.0696 161.211 16.0696V16.451H157.459V16.0696C158.315 16.0696 158.516 15.9961 158.516 15.1053V11.4796C158.516 10.1502 158.023 9.43926 156.969 9.43926C156.223 9.43926 155.64 9.96773 155.367 10.5698V15.1053C155.367 15.9988 155.604 16.0696 156.46 16.0696V16.4537H156.457ZM170.192 16.6363C168.097 16.6363 166.348 14.9964 166.348 12.6455C166.348 10.2592 168.116 8.51035 169.9 8.51035C171.995 8.51035 172.924 10.1312 172.924 11.643H167.86C167.86 11.752 167.86 11.861 167.86 11.9699C167.86 14.1001 169.099 15.7237 170.938 15.7237C171.739 15.7237 172.36 15.4322 172.85 14.8139L173.052 15.0154C172.36 16.0887 171.287 16.6363 170.192 16.6363ZM167.914 11.2072H171.431C171.377 9.91325 170.903 8.98434 169.884 8.98434C168.882 8.98434 168.116 9.76888 167.914 11.2072ZM177.46 16.4537H173.689V16.0724C174.545 16.0724 174.765 15.9988 174.765 15.1081V10.0249C174.765 9.13144 174.548 9.07696 173.689 9.07696V8.69559H176.367V10.2075C176.713 9.49647 177.623 8.51308 178.862 8.51308C180.483 8.51308 181.23 9.71439 181.23 11.1718V15.1053C181.23 15.9988 181.448 16.0696 182.306 16.0696V16.451H178.552V16.0696C179.407 16.0696 179.628 15.9961 179.628 15.1053V11.4796C179.628 10.1502 179.064 9.43926 178.007 9.43926C177.261 9.43926 176.64 9.96773 176.367 10.5698V15.1053C176.367 15.9988 176.604 16.0696 177.46 16.0696V16.4537ZM184.855 6.65254H185V8.72828C185.583 8.72828 187.021 8.70921 187.55 8.65473L187.441 9.25675H185V14.2472C185 15.1407 185.381 15.7945 186.239 15.7945C186.803 15.7945 187.187 15.5385 187.569 15.01L187.825 15.2116C187.261 16.1214 186.495 16.6335 185.457 16.6335C184.311 16.6335 183.398 15.7945 183.398 14.5741L183.453 9.25403H182.415V9.01703C183.379 8.36598 184.272 7.49155 184.855 6.65254ZM122.504 19.7172V20.0686C121.722 20.0686 121.401 20.1312 121.401 20.6815V20.8504L122.077 27.8758C122.139 28.5813 122.428 28.6576 123.259 28.6576V29.009H119.317V28.6576C120.053 28.6576 120.377 28.5949 120.377 28.0746V27.8758L119.671 20.5589L116.68 29.1643H116.558L113.583 20.5589L112.924 27.8594V27.982C112.924 28.6113 113.4 28.6576 114.196 28.6576V29.009H111.02V28.6576C111.864 28.6576 112.292 28.5949 112.368 27.8594L113.027 20.8504C113.027 20.7877 113.044 20.7278 113.044 20.6978C113.044 20.1312 112.692 20.0686 111.924 20.0686V19.7172H115.021L117.214 26.1732L119.47 19.7172H122.504ZM125.819 23.1059C125.114 23.1059 124.515 23.5826 124.147 24.4407L123.839 24.3181C124.237 23.1359 125.234 22.2615 126.555 22.2615C127.996 22.2615 128.887 23.1658 128.887 24.6232V27.8131C128.887 28.2435 129.116 28.456 129.377 28.456C129.606 28.456 129.731 28.3634 129.93 28.1346L130.115 28.3334C129.84 28.7774 129.347 29.1615 128.704 29.1615C128.045 29.1615 127.476 28.7938 127.277 28.0882C126.893 28.6412 126.187 29.1615 125.345 29.1615C124.487 29.1615 123.719 28.6085 123.719 27.6578C123.719 26.6772 124.547 26.2005 125.759 25.7401L127.263 25.1735V24.7295C127.26 23.8441 126.83 23.1059 125.819 23.1059ZM126.217 25.9744C125.634 26.2195 125.204 26.5573 125.204 27.2792C125.204 27.9221 125.618 28.3688 126.217 28.3688C126.585 28.3688 126.953 28.17 127.26 27.8322V25.593L126.217 25.9744ZM133.488 29.0117H130.159V28.6903C130.848 28.6903 131.003 28.614 131.003 27.8621V23.5663C131.003 22.8144 130.851 22.7382 130.159 22.7382V22.4167H132.643V23.6126C132.951 22.9997 133.733 22.2615 134.714 22.2615C136.108 22.2615 136.77 23.2748 136.77 24.5006V27.8594C136.77 28.6113 136.923 28.6875 137.615 28.6875V29.009H134.302V28.6875C134.978 28.6875 135.13 28.6113 135.13 27.8594V24.7622C135.13 23.6589 134.67 23.1359 133.872 23.1359C133.351 23.1359 132.905 23.4573 132.646 23.9477V27.8594C132.646 28.6113 132.798 28.6875 133.49 28.6875V29.0117H133.488ZM140.175 23.1059C139.47 23.1059 138.87 23.5826 138.503 24.4407L138.195 24.3181C138.593 23.1359 139.59 22.2615 140.911 22.2615C142.352 22.2615 143.243 23.1658 143.243 24.6232V27.8131C143.243 28.2435 143.471 28.456 143.733 28.456C143.962 28.456 144.084 28.3634 144.286 28.1346L144.471 28.3334C144.196 28.7774 143.703 29.1615 143.06 29.1615C142.401 29.1615 141.834 28.7938 141.633 28.0882C141.249 28.6412 140.543 29.1615 139.701 29.1615C138.843 29.1615 138.075 28.6085 138.075 27.6578C138.075 26.6772 138.903 26.2005 140.115 25.7401L141.619 25.1735V24.7295C141.616 23.8441 141.186 23.1059 140.175 23.1059ZM140.573 25.9744C139.99 26.2195 139.56 26.5573 139.56 27.2792C139.56 27.9221 139.974 28.3688 140.573 28.3688C140.941 28.3688 141.308 28.17 141.616 27.8322V25.593L140.573 25.9744ZM147.459 32.079C145.604 32.079 144.071 31.4661 144.071 30.3302C144.071 29.532 144.961 28.9954 145.988 28.8891C145.667 28.7665 145.359 28.4288 145.359 27.9548C145.359 27.2792 145.896 26.8651 146.571 26.6663C145.452 26.4048 144.607 25.563 144.607 24.487C144.607 23.1985 145.833 22.2642 147.307 22.2642C147.658 22.2642 147.996 22.3105 148.32 22.4167C149.41 22.4167 150.252 22.4004 150.914 22.3105L150.668 22.9997L149.317 22.9697C149.748 23.3538 150.023 23.8904 150.023 24.487C150.023 25.7919 148.797 26.7425 147.307 26.7425C147.214 26.7425 147.122 26.7426 147.032 26.7262C146.618 26.7889 146.402 26.955 146.402 27.2029C146.402 27.4181 146.571 27.5244 146.833 27.587L148.966 28.0637C150.148 28.2925 150.821 28.7992 150.821 29.72C150.818 31.2046 149.023 32.079 147.459 32.079ZM146.31 29.0117C145.634 29.1506 145.267 29.5947 145.267 30.2375C145.267 31.1583 146.141 31.6786 147.446 31.6786C148.595 31.6786 149.655 31.2945 149.655 30.4963C149.655 30.0523 149.394 29.7608 148.642 29.5756L146.31 29.0117ZM147.307 22.6156C146.601 22.6156 146.125 23.3838 146.125 24.487C146.125 25.6066 146.601 26.3884 147.307 26.3884C148.012 26.3884 148.503 25.6066 148.503 24.487C148.503 23.3838 148.012 22.6156 147.307 22.6156ZM154.24 29.1643C152.431 29.1643 150.941 27.7832 150.941 25.8055C150.941 23.7815 152.474 22.2615 154.071 22.2615C155.836 22.2615 156.678 23.6562 156.678 24.931H152.491C152.491 24.9774 152.491 25.0373 152.491 25.0999C152.491 26.955 153.534 28.3062 155.021 28.3062C155.667 28.3062 156.171 28.061 156.585 27.508L156.784 27.6933C156.187 28.6576 155.22 29.1643 154.24 29.1643ZM152.521 24.5497H155.267C155.22 23.46 154.836 22.6782 154.024 22.6782C153.226 22.6782 152.643 23.3211 152.521 24.5497ZM160.619 29.0117H157.291V28.6903C157.98 28.6903 158.135 28.614 158.135 27.8621V23.5663C158.135 22.8144 157.983 22.7382 157.291 22.7382V22.4167H159.775V23.6126C160.083 22.9997 160.802 22.2615 161.832 22.2615C162.935 22.2615 163.518 22.8907 163.733 23.7488C164.008 23.1195 164.76 22.2615 165.88 22.2615C167.274 22.2615 167.857 23.2748 167.857 24.5006V27.8594C167.857 28.6113 168.01 28.6875 168.715 28.6875V29.009H165.387V28.6875C166.076 28.6875 166.231 28.6113 166.231 27.8594V24.7622C166.231 23.6589 165.833 23.1359 165.019 23.1359C164.452 23.1359 163.992 23.5499 163.777 24.0403C163.793 24.1792 163.807 24.3481 163.807 24.5006V27.8594C163.807 28.6113 163.959 28.6875 164.665 28.6875V29.009H161.336V28.6875C162.025 28.6875 162.18 28.6113 162.18 27.8594V24.7622C162.18 23.6589 161.783 23.1359 160.984 23.1359C160.464 23.1359 160.034 23.4573 159.772 23.9477V27.8594C159.772 28.6113 159.925 28.6875 160.617 28.6875V29.0117H160.619ZM172.39 29.1643C170.581 29.1643 169.091 27.7832 169.091 25.8055C169.091 23.7815 170.625 22.2615 172.221 22.2615C173.986 22.2615 174.828 23.6562 174.828 24.931H170.641C170.641 24.9774 170.641 25.0373 170.641 25.0999C170.641 26.955 171.685 28.3062 173.172 28.3062C173.818 28.3062 174.321 28.061 174.736 27.508L174.934 27.6933C174.338 28.6576 173.371 29.1643 172.39 29.1643ZM170.671 24.5497H173.417C173.371 23.46 172.987 22.6782 172.175 22.6782C171.377 22.6782 170.797 23.3211 170.671 24.5497ZM178.77 29.0117H175.441V28.6903C176.13 28.6903 176.286 28.614 176.286 27.8621V23.5663C176.286 22.8144 176.133 22.7382 175.441 22.7382V22.4167H177.925V23.6126C178.233 22.9997 179.015 22.2615 179.996 22.2615C181.39 22.2615 182.052 23.2748 182.052 24.5006V27.8594C182.052 28.6113 182.205 28.6875 182.897 28.6875V29.009H179.584V28.6875C180.26 28.6875 180.412 28.6113 180.412 27.8594V24.7622C180.412 23.6589 179.952 23.1359 179.154 23.1359C178.634 23.1359 178.187 23.4573 177.928 23.9477V27.8594C177.928 28.6113 178.081 28.6875 178.773 28.6875V29.0117H178.77ZM185.329 20.5916H185.452V22.4467C185.942 22.4467 187.108 22.4303 187.552 22.384L187.46 22.9071H185.449V27.094C185.449 27.8295 185.771 28.3661 186.463 28.3661C186.923 28.3661 187.231 28.1509 187.552 27.7069L187.781 27.8921C187.291 28.6903 186.569 29.1643 185.665 29.1643C184.621 29.1643 183.809 28.4124 183.809 27.3228L183.856 22.8907H183.044V22.6755C183.902 22.1552 184.806 21.2971 185.329 20.5916Z" fill="#4D4D4D"/>
</g>
<defs>
<clipPath id="clip0_629_58396">
<rect width="190.685" height="32.6888" fill="white" transform="translate(0.449219 0.225586)"/>
</clipPath>
</defs>
</svg>
