<svg width="153" height="35" viewBox="0 0 153 35" fill="none" xmlns="http://www.w3.org/2000/svg">
<path d="M149.208 14.1148H129.706C129.706 8.72888 134.071 4.36269 139.457 4.36269C144.842 4.36269 149.208 8.72888 149.208 14.1148ZM141.895 26.6469H137.02L138.26 22.1346C137.519 21.7163 137.02 20.9223 137.02 20.011C137.02 18.6646 138.11 17.5729 139.457 17.5729C140.804 17.5729 141.895 18.6646 141.895 20.011C141.895 20.9223 141.394 21.7163 140.654 22.1346L141.895 26.6469ZM139.457 0.570068C131.977 0.570068 125.914 6.63428 125.914 14.1148C125.914 16.652 126.612 19.0259 127.825 21.056C130.191 25.0108 139.457 34.5701 139.457 34.5701C139.457 34.5701 148.724 25.0108 151.089 21.056C152.302 19.0259 153 16.652 153 14.1148C153 6.63428 146.937 0.570068 139.457 0.570068Z" fill="#4D4D4D"/>
<path d="M88.1843 26.531C90.6579 26.531 92.789 25.8342 94.3472 24.5159C96.1008 23.0327 97.0282 20.8015 97.0282 18.0635V7.37024H91.712V17.6297C91.712 20.1483 90.459 21.5354 88.1843 21.5354H88.0423C85.7676 21.5354 84.5146 20.1483 84.5146 17.6297V7.37024H79.1797V18.0635C79.1797 20.8025 80.1079 23.0338 81.8624 24.5161C83.424 25.8343 85.5602 26.531 88.0423 26.531H88.1843Z" fill="#4D4D4D"/>
<path d="M22.6112 7.30482C20.6683 7.30482 18.0468 7.82698 16.4034 10.2649C15.0856 8.3794 12.906 7.30482 10.3714 7.30482C8.18149 7.30482 6.40803 8.07139 5.20266 9.52999V7.79518H0V26.4844H5.33441V16.2628C5.33441 13.8787 6.77117 12.3382 8.99465 12.3382C11.1602 12.3382 12.3529 13.7186 12.3529 16.2251V26.4844H17.6875V16.2628C17.6875 13.8787 19.1241 12.3382 21.3475 12.3382C23.4818 12.3382 24.706 13.7549 24.706 16.2251V26.4844H30.0217V14.6406C30.0217 12.5007 29.3126 10.6671 27.971 9.33786C26.6285 8.0078 24.7751 7.30482 22.6112 7.30482Z" fill="#4D4D4D"/>
<path d="M42.7021 16.9524L37.8118 7.79591H31.7578L39.7535 22.3928L33.2453 34.1052H39.1125L53.3098 7.79591H47.4451L42.7021 16.9524Z" fill="#4D4D4D"/>
<path d="M65.5681 12.3005C68.2229 12.3005 70.0769 14.2867 70.0769 17.1305C70.0769 19.9743 68.2229 21.9604 65.5681 21.9604C62.9245 21.9604 61.0782 19.9743 61.0782 17.1305C61.0782 14.2867 62.9245 12.3005 65.5681 12.3005ZM66.4735 7.30486C64.3223 7.30486 62.5609 8.0308 61.2292 9.46415V7.79523H56.0078V34.0291H61.3234V24.9082C62.649 26.2676 64.3851 26.956 66.4922 26.956C71.6523 26.956 75.5436 22.732 75.5436 17.1305C75.5436 11.529 71.6443 7.30486 66.4735 7.30486Z" fill="#4D4D4D"/>
<path d="M110.709 12.3005C113.364 12.3005 115.218 14.2867 115.218 17.1305C115.218 19.9743 113.364 21.9604 110.709 21.9604C108.065 21.9604 106.219 19.9743 106.219 17.1305C106.219 14.2867 108.065 12.3005 110.709 12.3005ZM111.614 7.30486C109.463 7.30486 107.701 8.0308 106.37 9.46415V7.79523H101.148V34.0291H106.464V24.9082C107.79 26.2676 109.526 26.956 111.633 26.956C116.793 26.956 120.684 22.732 120.684 17.1305C120.684 11.529 116.785 7.30486 111.614 7.30486Z" fill="#4D4D4D"/>
<path d="M141.908 26.6443H137.031L138.272 22.132C137.531 21.7136 137.031 20.9197 137.031 20.0084C137.031 18.6619 138.123 17.5703 139.469 17.5703C140.816 17.5703 141.908 18.6619 141.908 20.0084C141.908 20.9197 141.406 21.7136 140.666 22.132L141.908 26.6443Z" fill="#4D4D4D"/>
</svg>
