<svg width="99" height="31" viewBox="0 0 99 31" fill="none" xmlns="http://www.w3.org/2000/svg">
<g clip-path="url(#clip0_629_58367)">
<path d="M67.4587 5.22396V27.5411H63.3985V5.22396H57.543V1.16309H73.2173V5.22396H67.4587Z" fill="#4D4D4D"/>
<path d="M14.9636 25.684C13.4726 27.0695 11.6092 27.7428 9.44712 27.7428C4.68536 27.7428 2.32855 25.2854 0.574219 21.175L4.30589 19.4412C5.32323 22.0189 6.32429 23.6493 9.44712 23.6493C11.4889 23.6493 13.1491 22.3948 13.1491 20.2525C13.1491 18.8437 12.4347 17.5396 10.7038 16.3382L5.4266 13.1793C3.32041 11.7428 2.09138 9.88369 2.09138 7.63874C2.09138 5.68122 2.79085 4.04016 4.22094 2.79911C5.55544 1.59769 7.21703 1.02637 9.14269 1.02637C12.8765 1.02637 14.686 2.97893 16.3328 6.01396L12.7016 7.79661C11.8337 6.29503 11.125 5.08653 9.14269 5.08653C8.16641 5.08653 7.47969 5.32512 6.97562 5.73503C6.45881 6.17467 6.18482 6.76511 6.18482 7.63874C6.18482 8.19378 6.69526 9.10422 8.59544 10.3127C11.7912 12.3318 13.6418 13.5254 13.9788 13.8065C16.0786 15.5856 17.2092 17.7456 17.2092 20.2525C17.2092 22.4352 16.4736 24.2787 14.9636 25.684Z" fill="#4D4D4D"/>
<path d="M45.0664 27.5411V1.16309H49.1259V23.4483H55.2122V27.5411H45.0664Z" fill="#4D4D4D"/>
<path fill-rule="evenodd" clip-rule="evenodd" d="M92.3724 7.5891C90.8198 5.82344 88.8814 4.94911 86.4857 4.94911C81.2361 4.94911 78.2011 9.49352 78.2011 14.3671C78.2011 19.24 81.2361 23.7837 86.4857 23.7837C88.8814 23.7837 90.8198 22.9094 92.3724 21.1452C93.954 19.3661 94.7695 17.1296 94.7695 14.3671C94.7695 11.6032 93.954 9.36679 92.3724 7.5891ZM95.1773 23.9211C92.8602 26.5441 89.942 27.8765 86.4857 27.8765C83.0471 27.8765 80.1275 26.5391 77.7926 23.9211C75.4903 21.2896 74.3477 18.0818 74.3477 14.3671C74.3477 7.42131 79.0938 0.889648 86.4857 0.889648C93.8945 0.889648 98.6534 7.39512 98.6534 14.3671C98.6534 18.0846 97.5016 21.2896 95.1773 23.9211Z" fill="#4D4D4D"/>
<path d="M37.5796 27.5403L30.648 9.98712L23.7552 27.5403H19.5117L30.648 0.936523L41.8239 27.5403H37.5796Z" fill="#4D4D4D"/>
<path d="M27.5195 22.0381L30.6919 30.2221L33.8147 22.0381H27.5195Z" fill="#4D4D4D"/>
</g>
<defs>
<clipPath id="clip0_629_58367">
<rect width="98.1406" height="29.3606" fill="white" transform="translate(0.582031 0.889648)"/>
</clipPath>
</defs>
</svg>
