<svg width="74" height="40" viewBox="0 0 74 40" fill="none" xmlns="http://www.w3.org/2000/svg">
<g clip-path="url(#clip0_629_58381)">
<path d="M10.5012 27.8083C10.5663 28.0992 10.6488 28.5074 10.7487 29.0327C10.8485 29.558 10.9549 30.1398 11.0678 30.778L11.4129 32.7318L11.7321 34.5683L12.9434 32.7774L14.2068 30.8888C14.641 30.2679 15.0361 29.6883 15.3921 29.1499C15.7481 28.6116 16.0694 28.1665 16.3559 27.8149H18.5441C18.4703 28.5529 18.3705 29.38 18.2446 30.2961C18.1186 31.2122 17.9797 32.163 17.8278 33.1486C17.6715 34.1298 17.5086 35.1175 17.3393 36.1118C17.17 37.106 17.0072 38.0395 16.8509 38.9122H14.3957C14.6214 37.8224 14.8581 36.6458 15.1055 35.3824C15.353 34.119 15.5853 32.8403 15.8024 31.5465L14.8971 33.0118L13.8551 34.64C13.5121 35.1914 13.1822 35.7167 12.8652 36.216C12.5483 36.7153 12.2704 37.1494 12.0316 37.5185H10.2081C10.156 37.1972 10.0909 36.7913 10.0128 36.3006C9.93461 35.81 9.85212 35.289 9.76528 34.7376C9.67411 34.1863 9.58076 33.6305 9.48525 33.0704C9.38973 32.5104 9.29855 32.0046 9.21172 31.553C8.77755 32.8555 8.402 34.1342 8.08506 35.3889L7.14726 38.9187H4.72461C4.97208 38.0503 5.24127 37.1169 5.53216 36.1183C5.82305 35.1197 6.12263 34.1255 6.43088 33.1356C6.74783 32.15 7.06043 31.197 7.36868 30.2766C7.67694 29.3562 7.97 28.5334 8.24787 27.8083H10.5012Z" fill="#828282"/>
<path d="M24.956 39.1424C24.3443 39.1495 23.7367 39.0412 23.165 38.8233C22.6367 38.6198 22.1573 38.3068 21.7583 37.9051C21.3529 37.4864 21.04 36.9872 20.8401 36.4397C20.6136 35.8137 20.5032 35.1516 20.5145 34.486C20.516 33.6405 20.6614 32.8015 20.9443 32.0047C21.2244 31.1968 21.6456 30.4449 22.1882 29.784C22.726 29.125 23.3903 28.5802 24.1419 28.1819C24.9589 27.7611 25.8671 27.5486 26.786 27.5632C27.3999 27.5557 28.0097 27.6639 28.5834 27.8823C29.1125 28.0876 29.5919 28.4028 29.9901 28.8071C30.3956 29.2257 30.7085 29.725 30.9084 30.2724C31.1346 30.8985 31.245 31.5605 31.234 32.2262C31.2323 33.0753 31.0892 33.9183 30.8107 34.7204C30.5382 35.5311 30.1212 36.2857 29.5799 36.9477C29.0434 37.6064 28.3787 38.1492 27.6261 38.5433C26.7982 38.9577 25.8816 39.1633 24.956 39.1424ZM26.5385 29.7058C26.0558 29.7047 25.5824 29.8377 25.1709 30.0901C24.7384 30.355 24.3622 30.7024 24.0638 31.1125C23.748 31.5547 23.506 32.0451 23.3474 32.5648C23.1705 33.1185 23.0805 33.6963 23.0804 34.2776C23.0468 34.9645 23.2216 35.6455 23.5818 36.2313C23.7686 36.4856 24.0177 36.6875 24.3051 36.8176C24.5926 36.9476 24.9087 37.0014 25.223 36.9738C25.7057 36.9749 26.1791 36.8418 26.5906 36.5895C27.0232 36.3247 27.3994 35.9773 27.6977 35.5671C28.0213 35.122 28.2699 34.627 28.4337 34.1018C28.6116 33.546 28.7017 32.966 28.7007 32.3825C28.7346 31.6955 28.5598 31.0144 28.1992 30.4287C28.0085 30.175 27.7552 29.975 27.4642 29.8483C27.1731 29.7216 26.8542 29.6725 26.5385 29.7058Z" fill="#828282"/>
<path d="M35.1131 38.9124C34.9438 38.005 34.781 37.065 34.6247 36.0925C34.4684 35.12 34.3208 34.1604 34.1818 33.214C34.0429 32.2545 33.9192 31.3167 33.8106 30.4006C33.7021 29.4845 33.6109 28.627 33.5371 27.8281H36.2137C36.2441 28.436 36.2832 29.0872 36.331 29.7819C36.3787 30.4765 36.4373 31.1864 36.5068 31.9115C36.5719 32.6235 36.6392 33.329 36.7087 34.028C36.7782 34.727 36.8498 35.3783 36.9236 35.9818C37.2536 35.426 37.6096 34.8182 37.9917 34.1583C38.3737 33.4983 38.758 32.8102 39.1444 32.0938C39.5351 31.3774 39.9194 30.6567 40.2971 29.9317C40.6748 29.2066 41.0243 28.5076 41.3456 27.8346H44.0027C43.5946 28.6031 43.1604 29.4302 42.7002 30.3159C42.24 31.2016 41.7168 32.1133 41.1307 33.0511C40.5663 34.002 39.9845 34.9702 39.3853 35.9557C38.7862 36.9413 38.1349 37.9268 37.4316 38.9124H35.1131Z" fill="#828282"/>
<path d="M43.6855 38.9111L46.3426 27.8398H53.6041L53.0896 29.8913H48.329L47.8145 32.1316H52.0085L51.5136 34.1505H47.326L46.6748 36.8727H51.8001L51.2856 38.9371L43.6855 38.9111Z" fill="#828282"/>
<path d="M59.6327 27.6808C60.2672 27.6687 60.8999 27.7543 61.5083 27.9348C61.9814 28.0825 62.423 28.3165 62.8108 28.6251C63.1508 28.896 63.421 29.2444 63.5988 29.6411C63.7677 30.0271 63.8542 30.4441 63.8528 30.8654C63.8539 31.2161 63.8146 31.5658 63.7356 31.9074C63.6505 32.2591 63.4978 32.5908 63.2862 32.8843C63.0517 33.2164 62.7634 33.507 62.4331 33.744C61.9963 34.0331 61.5174 34.2528 61.0134 34.3952C61.357 35.0504 61.6636 35.7245 61.9316 36.4141C62.2486 37.2043 62.546 38.0314 62.8238 38.8953H60.1407C59.8932 38.1573 59.6457 37.4279 59.3983 36.7071C59.1693 36.0633 58.8769 35.4437 58.5256 34.8576H57.3077L56.3309 38.9084H53.8496L56.4546 27.9674C57.0105 27.8645 57.5713 27.7906 58.1348 27.7459C58.6819 27.7025 59.1812 27.6808 59.6327 27.6808ZM59.5546 29.7974H58.9945H58.5126L57.7897 32.8843H58.6363C59.0749 32.8942 59.5128 32.846 59.9388 32.741C60.2424 32.6667 60.5296 32.5364 60.7854 32.3568C60.9827 32.2148 61.1397 32.024 61.2413 31.8032C61.3327 31.5984 61.3793 31.3763 61.3781 31.152C61.3795 30.9753 61.3531 30.7995 61.2999 30.631C61.2442 30.4611 61.1455 30.3085 61.0134 30.1881C60.8513 30.0464 60.6601 29.9419 60.4533 29.882C60.1578 29.8062 59.8527 29.7755 59.548 29.7909L59.5546 29.7974Z" fill="#828282"/>
<path d="M68.1047 37.0573C68.3511 37.0564 68.5971 37.0368 68.8406 36.9987C69.0668 36.9655 69.2865 36.8974 69.4918 36.7968C69.6828 36.7029 69.8465 36.5617 69.9672 36.3865C70.091 36.1922 70.1545 35.9656 70.1496 35.7352C70.1544 35.5363 70.0925 35.3414 69.9738 35.1817C69.8466 35.0183 69.6951 34.8755 69.5244 34.7584C69.3329 34.624 69.1303 34.5064 68.9187 34.4067C68.693 34.2981 68.4759 34.1809 68.2675 34.055C67.9865 33.8873 67.7148 33.7047 67.4534 33.508C67.2066 33.3228 66.9873 33.1035 66.8022 32.8567C66.6195 32.6128 66.4746 32.3427 66.3723 32.0557C66.2594 31.7291 66.2043 31.3853 66.2095 31.0397C66.2055 30.5692 66.301 30.1032 66.4896 29.6721C66.6782 29.2454 66.9636 28.8686 67.3232 28.5715C67.733 28.2394 68.2044 27.9915 68.7103 27.8421C69.3443 27.6544 70.0031 27.5644 70.6641 27.5751C70.9983 27.5752 71.3318 27.6057 71.6605 27.6662C71.964 27.7203 72.2641 27.792 72.5592 27.8812C72.8205 27.9614 73.0752 28.0615 73.3212 28.1807C73.5235 28.2763 73.7193 28.3851 73.9073 28.5064L72.8523 30.3299C72.2064 29.8566 71.4257 29.6032 70.625 29.607C70.389 29.6066 70.1535 29.6284 69.9217 29.6721C69.7132 29.7089 69.5126 29.7816 69.329 29.887C69.1633 29.983 69.0227 30.1169 68.9187 30.2778C68.8301 30.4523 68.7839 30.6453 68.7839 30.8411C68.7839 31.0369 68.8301 31.2299 68.9187 31.4044C68.9981 31.549 69.1042 31.6772 69.2313 31.7821C69.3697 31.8945 69.5205 31.9906 69.6807 32.0687L70.2277 32.3422C70.5577 32.5115 70.879 32.6939 71.1916 32.8893C71.49 33.0701 71.7637 33.2891 72.0057 33.5405C72.2407 33.7925 72.4302 34.0834 72.5657 34.4002C72.7126 34.7618 72.7835 35.1497 72.7741 35.5399C72.7873 36.0888 72.6713 36.6331 72.4355 37.1289C72.2149 37.5725 71.8911 37.9567 71.4912 38.2491C71.0535 38.5576 70.5604 38.7787 70.0389 38.9003C69.4273 39.05 68.7994 39.1222 68.1698 39.1152C67.7483 39.1182 67.3274 39.0812 66.9129 39.0045C66.5561 38.937 66.2038 38.8478 65.8579 38.7375C65.5783 38.6508 65.3061 38.5419 65.0438 38.4119C64.8525 38.3178 64.6676 38.2112 64.4902 38.0928L65.5453 36.1846C65.6946 36.2836 65.849 36.3749 66.0076 36.4581C66.2077 36.5626 66.4144 36.654 66.6263 36.7316C66.8645 36.8191 67.1082 36.8909 67.3557 36.9466C67.6008 37.0098 67.8518 37.0469 68.1047 37.0573Z" fill="#828282"/>
<path d="M22.459 23.213V20.9336H29.0171V23.2065L22.459 23.213Z" fill="#828282"/>
<path d="M18.9348 11.4481C19.0608 11.4192 19.1798 11.3653 19.2848 11.2896C19.3897 11.214 19.4784 11.1181 19.5458 11.0077C19.6131 10.8973 19.6577 10.7745 19.6769 10.6466C19.6962 10.5187 19.6896 10.3882 19.6577 10.2629C19.313 8.87331 18.5599 7.6189 17.4955 6.66145C16.0785 5.36241 14.2049 4.67707 12.2842 4.75516C10.3634 4.83326 8.55169 5.66846 7.24484 7.07825C5.95674 8.50111 5.28435 10.3761 5.37465 12.2933C5.46496 14.2104 6.31062 16.0139 7.72677 17.3094C8.55287 18.0732 9.54489 18.635 10.6248 18.9505C10.7519 18.9857 10.8847 18.9949 11.0153 18.9777C11.146 18.9605 11.2719 18.9172 11.3855 18.8503C11.4991 18.7835 11.5981 18.6945 11.6767 18.5887C11.7552 18.4828 11.8116 18.3623 11.8427 18.2342C11.9128 17.9803 11.8795 17.709 11.7502 17.4795C11.6208 17.2501 11.4059 17.0812 11.1523 17.0098C10.3671 16.7865 9.64172 16.3904 9.02927 15.8506C8.00635 14.8994 7.39627 13.5858 7.3295 12.1906C7.2951 11.1493 7.56863 10.1211 8.11585 9.23459C8.66306 8.34808 9.45965 7.64272 10.4059 7.2068C11.3521 6.77089 12.4059 6.62381 13.4353 6.78398C14.4647 6.94414 15.424 7.40444 16.193 8.10722C16.9583 8.80122 17.4982 9.70855 17.743 10.7122C17.8062 10.9641 17.9659 11.1811 18.1877 11.3163C18.4094 11.4515 18.6754 11.4942 18.9283 11.4351L18.9348 11.4481ZM23.6759 12.0994C23.9368 12.0729 24.1772 11.946 24.3461 11.7454C24.5151 11.5449 24.5994 11.2864 24.5811 11.0248C24.3884 8.71867 23.5348 6.51699 22.1227 4.68356C20.7106 2.85013 18.7998 1.4627 16.6193 0.687498C14.4388 -0.0877034 12.081 -0.217804 9.8285 0.312783C7.57594 0.843369 5.52413 2.01214 3.91887 3.67907C2.31362 5.34601 1.22299 7.44041 0.77767 9.71135C0.332345 11.9823 0.551203 14.3335 1.40802 16.4832C2.26485 18.633 3.72329 20.4901 5.60863 21.8321C7.49398 23.1741 9.72626 23.9441 12.038 24.0498C12.1744 24.0569 12.3108 24.0356 12.4385 23.9874C12.5663 23.9392 12.6827 23.8651 12.7805 23.7698C12.956 23.5981 13.0567 23.364 13.0605 23.1185C13.0694 22.8568 12.9757 22.602 12.7992 22.4085C12.6228 22.215 12.3776 22.0982 12.1162 22.083C10.1863 21.9937 8.32305 21.3499 6.74965 20.2287C5.17625 19.1076 3.95939 17.5567 3.24482 15.7617C2.53025 13.9667 2.34827 12.0038 2.72066 10.1081C3.09305 8.21234 4.00404 6.46413 5.3445 5.07284C6.68497 3.68156 8.39809 2.70618 10.2787 2.26354C12.1593 1.82089 14.1276 1.92974 15.9479 2.57706C17.7682 3.22437 19.3633 4.3827 20.5422 5.91331C21.7211 7.44392 22.4337 9.28192 22.5948 11.2072C22.6037 11.338 22.6389 11.4656 22.6982 11.5826C22.7575 11.6995 22.8398 11.8033 22.94 11.8878C23.0403 11.9722 23.1566 12.0357 23.2819 12.0743C23.4072 12.1128 23.5389 12.1258 23.6694 12.1124L23.6759 12.0994Z" fill="#828282"/>
<path d="M21.8462 22.9118L12.9827 14.0548C12.5427 14.1481 12.0841 14.0927 11.6789 13.8974C11.2736 13.702 10.9447 13.3778 10.7436 12.9754C10.5425 12.573 10.4807 12.1152 10.5677 11.6739C10.6547 11.2325 10.8858 10.8326 11.2246 10.5367C11.5634 10.2407 11.9909 10.0656 12.4399 10.0388C12.8889 10.0119 13.3342 10.1348 13.7059 10.3883C14.0775 10.6417 14.3546 11.0113 14.4936 11.4391C14.6326 11.8669 14.6258 12.3288 14.4741 12.7523L23.2269 21.5311C23.3188 21.623 23.3918 21.7322 23.4416 21.8523C23.4913 21.9724 23.5169 22.1012 23.5169 22.2312C23.5169 22.3612 23.4913 22.49 23.4416 22.6101C23.3918 22.7302 23.3188 22.8394 23.2269 22.9313C23.1361 23.0229 23.028 23.0955 22.909 23.1451C22.7899 23.1947 22.6623 23.2202 22.5333 23.2202C22.4043 23.2202 22.2767 23.1947 22.1576 23.1451C22.0386 23.0955 21.9305 23.0229 21.8397 22.9313L21.8462 22.9118Z" fill="#828282"/>
<path d="M28.9329 20.9419C29.4776 20.9762 30.023 20.8871 30.5284 20.6814C30.6911 20.5974 30.8254 20.4674 30.9146 20.3076C31.0038 20.1477 31.0439 19.9652 31.0299 19.7826C31.0294 19.5882 30.9803 19.397 30.887 19.2263C30.7938 19.0557 30.6593 18.9111 30.4959 18.8058C29.9447 18.4536 29.3519 18.1714 28.731 17.9657C28.2607 17.7974 27.7998 17.6039 27.3503 17.386C26.9587 17.1983 26.5949 16.9572 26.2693 16.6697C25.9561 16.381 25.7094 16.0277 25.5464 15.6342C25.3596 15.1826 25.2708 14.6964 25.2859 14.2079C25.2624 13.7089 25.3597 13.2115 25.5694 12.758C25.7791 12.3045 26.0952 11.9083 26.4907 11.603C27.4405 10.9339 28.5866 10.6016 29.7469 10.6586C30.4204 10.657 31.0923 10.7225 31.7528 10.854C32.2414 10.9434 32.7225 11.0697 33.1921 11.2317L32.6906 13.4655C32.3164 13.305 31.9284 13.1785 31.5314 13.0878C30.9929 12.9672 30.442 12.9103 29.8902 12.9185C29.4176 12.8991 28.9477 12.9976 28.5226 13.205C28.3588 13.2845 28.2217 13.41 28.1281 13.5661C28.0344 13.7223 27.9882 13.9023 27.9951 14.0842C27.9925 14.2633 28.028 14.4409 28.0993 14.6052C28.1797 14.7732 28.3005 14.9187 28.451 15.0285C28.6538 15.1793 28.8721 15.3081 29.1022 15.4128C29.4291 15.5631 29.7639 15.6957 30.1051 15.81C30.6913 16.0284 31.2633 16.2829 31.8179 16.572C32.2321 16.7773 32.6121 17.0453 32.9446 17.3665C33.2348 17.6523 33.4573 17.9995 33.5958 18.3825C33.741 18.8234 33.8093 19.286 33.7977 19.7501C33.8294 20.2564 33.7298 20.7622 33.5084 21.2187C33.287 21.6751 32.9515 22.0665 32.5343 22.3551C31.4455 23.0054 30.1857 23.3118 28.9199 23.2343C28.0677 23.2567 27.2162 23.1692 26.3865 22.9738C25.9321 22.8566 25.4843 22.7153 25.0449 22.5505L25.5203 20.245C26.0005 20.4361 26.492 20.5971 26.9922 20.727C27.6271 20.882 28.2794 20.9542 28.9329 20.9419Z" fill="#828282"/>
<path d="M37.1866 16.9729C37.1798 16.1305 37.3186 15.2933 37.5969 14.4981C37.8514 13.7626 38.2499 13.0852 38.7691 12.5053C39.2884 11.9444 39.9211 11.5003 40.6252 11.2028C41.4039 10.8753 42.2422 10.7134 43.0869 10.7274C44.1805 10.7205 45.2647 10.9285 46.278 11.3396L45.6854 13.5994C45.3362 13.4519 44.9744 13.3363 44.6043 13.2542C44.1766 13.1601 43.7397 13.1143 43.3018 13.1175C42.8412 13.0875 42.3797 13.1635 41.953 13.3396C41.5263 13.5158 41.1456 13.7873 40.8401 14.1334C40.2322 14.9578 39.9347 15.9702 40 16.9924C39.9468 17.9932 40.2286 18.9832 40.801 19.8058C41.3264 20.4961 42.2273 20.8413 43.5037 20.8413C43.9695 20.8414 44.4341 20.7956 44.8909 20.7045C45.2959 20.6269 45.6928 20.5114 46.0762 20.3594L46.4604 22.6388C46.0193 22.833 45.5554 22.9709 45.0797 23.049C44.4533 23.1716 43.8164 23.2326 43.1781 23.2314C42.2702 23.2514 41.3672 23.092 40.521 22.7625C39.8064 22.4773 39.1669 22.0316 38.6519 21.46C38.1494 20.894 37.7721 20.2282 37.5448 19.5062C37.2938 18.6857 37.1729 17.8309 37.1866 16.9729Z" fill="#828282"/>
<path d="M54.0488 10.7055C54.8289 10.6847 55.6068 10.7993 56.3477 11.0442C56.9253 11.2353 57.4466 11.5664 57.8652 12.008C58.2449 12.4348 58.5173 12.9461 58.6597 13.4994C58.8278 14.1368 58.9088 14.794 58.9006 15.4531V22.6494C58.4665 22.7406 57.8152 22.8513 56.9469 22.9816C55.9848 23.118 55.014 23.1833 54.0423 23.177C53.3855 23.1834 52.7301 23.1157 52.0886 22.9751C51.5439 22.8629 51.0277 22.6413 50.5712 22.3238C50.1516 22.0165 49.8158 21.609 49.5943 21.1385C49.3424 20.5715 49.2221 19.9547 49.2426 19.3346C49.2202 18.7281 49.3571 18.1263 49.6399 17.5892C49.8946 17.1243 50.259 16.7286 50.7014 16.4365C51.1844 16.1241 51.7209 15.9033 52.2839 15.7853C52.9026 15.6536 53.5335 15.5881 54.1661 15.5899C54.486 15.5916 54.8056 15.6112 55.1234 15.6485C55.4831 15.6918 55.8397 15.7571 56.1914 15.8439V15.388C56.1938 15.0806 56.1566 14.7742 56.0807 14.4763C56.0082 14.1953 55.8723 13.9346 55.6835 13.7143C55.4781 13.4829 55.2185 13.3061 54.928 13.1998C54.5517 13.0678 54.1544 13.0059 53.7558 13.0175C53.1668 13.0133 52.5786 13.059 51.9974 13.1542C51.5548 13.2227 51.119 13.3295 50.6949 13.4733L50.3497 11.2395C50.8505 11.0814 51.3619 10.9595 51.8802 10.8748C52.5965 10.7531 53.3223 10.6964 54.0488 10.7055ZM54.2768 20.9888C54.9309 21.0054 55.5851 20.9596 56.2305 20.852V17.7976C56.0165 17.7386 55.799 17.6929 55.5793 17.6609C55.2582 17.6113 54.9337 17.5874 54.6089 17.5892C54.2993 17.5905 53.9902 17.6145 53.6841 17.6609C53.3931 17.7001 53.1098 17.7836 52.844 17.9083C52.6005 18.0238 52.3917 18.2012 52.2384 18.4228C52.0761 18.6699 51.9942 18.961 52.0039 19.2564C51.9759 19.517 52.0185 19.7803 52.1274 20.0186C52.2362 20.257 52.4073 20.4616 52.6226 20.611C53.1296 20.8845 53.7013 21.0151 54.2768 20.9888Z" fill="#828282"/>
<path d="M63.7324 11.3897C64.4138 11.2047 65.1053 11.059 65.8034 10.9533C66.7385 10.8092 67.6836 10.7395 68.6298 10.7449C69.4596 10.7209 70.2863 10.8557 71.0655 11.1422C71.6731 11.3737 72.2113 11.7571 72.6285 12.2558C73.0301 12.7634 73.3107 13.3558 73.4491 13.9881C73.6149 14.7166 73.6958 15.4618 73.69 16.2089V22.9233H70.9287V16.6583C70.9365 16.1129 70.8951 15.568 70.805 15.0301C70.7443 14.6413 70.6047 14.2689 70.3947 13.936C70.2064 13.6548 69.9357 13.4387 69.6197 13.3174C69.2361 13.1777 68.8296 13.1114 68.4214 13.122C68.0558 13.1221 67.6904 13.1438 67.3273 13.1871L66.4872 13.3043V22.9233H63.7324V11.3897Z" fill="#828282"/>
</g>
<defs>
<clipPath id="clip0_629_58381">
<rect width="73.3047" height="39.1401" fill="white" transform="translate(0.560547)"/>
</clipPath>
</defs>
</svg>
