<svg width="99" height="35" viewBox="0 0 99 35" fill="none" xmlns="http://www.w3.org/2000/svg">
<g clip-path="url(#clip0_629_58403)">
<path d="M32.1518 29.1541C32.338 29.3399 32.4857 29.5606 32.5864 29.8036C32.6871 30.0466 32.7387 30.3071 32.7385 30.5702C32.7385 31.1814 32.4649 31.6736 32.1523 31.9864C31.5557 32.582 30.744 33.2022 29.6833 33.641C28.7653 34.0217 27.7812 34.2171 26.7874 34.216H8.28479C6.19487 34.216 4.30304 33.3694 2.9334 31.9999C1.56375 30.6302 0.716797 28.7386 0.716797 26.6481V8.1449C0.716797 6.05498 1.56343 4.16331 2.9334 2.79399C4.30287 1.42485 6.19487 0.577888 8.28479 0.577888H26.7872C27.781 0.576523 28.7652 0.771662 29.6833 1.15207C30.9063 1.65896 31.6885 2.28398 32.4433 3.09885C32.7439 3.42329 33.03 3.90336 33.03 4.51505C33.03 5.02737 32.8342 5.53986 32.4433 5.93109C32.2575 6.1173 32.0368 6.26499 31.7938 6.36567C31.5508 6.46635 31.2903 6.51804 31.0273 6.51778C30.4964 6.51661 29.9874 6.30574 29.6112 5.93109C29.0775 5.39689 28.7847 5.12263 28.1727 4.86351C27.7345 4.67786 27.2634 4.58245 26.7875 4.583H8.28479C7.30243 4.583 6.41188 4.98246 5.76695 5.62805C5.12219 6.27264 4.72257 7.16286 4.72257 8.14506V26.6483C4.72257 27.6315 5.12219 28.5214 5.76695 29.166C6.41188 29.8111 7.30243 30.211 8.28479 30.211H26.7872C27.2778 30.211 27.746 30.1117 28.1723 29.9305C28.6011 29.748 28.9906 29.4844 29.3195 29.1543C29.6956 28.7795 30.2048 28.5687 30.7357 28.5679C30.9987 28.5675 31.2593 28.6191 31.5023 28.7197C31.7453 28.8203 31.966 28.9679 32.1518 29.1541ZM26.7283 26.7704C26.6563 25.3096 25.6693 23.0606 23.1886 22.7649H14.3632L24.5313 13.0307C24.9605 12.621 25.9241 11.2321 25.2381 9.73763C24.6869 8.53597 23.7641 8.02381 22.1513 8.02381H9.48481C9.53647 9.70423 10.375 11.7104 12.6022 12.0696H19.84L9.14343 22.1223C8.70942 22.5389 7.99573 23.8194 8.55905 25.1199C9.06742 26.292 9.92408 26.7704 11.5163 26.7704H26.7283ZM55.705 17.5991V25.0585C55.705 27.8179 54.8607 30.2171 52.9462 32.1308C51.2254 33.8522 49.0509 34.5605 46.6634 34.5605C41.9816 34.5605 39.5696 30.943 39.5696 30.943C40.8283 29.6842 42.5791 28.9194 44.2933 29.9463C44.5815 30.1187 45.4458 30.5907 46.6825 30.5907C51.0155 30.5907 51.7208 26.7187 51.7208 25.5661C50.2197 26.4736 48.5246 26.9252 46.6427 26.9262H46.6402C44.1918 26.9252 42.0445 26.1513 40.2582 24.6239L40.2347 24.6036C38.4819 22.9227 37.5851 20.8494 37.5701 18.4389C37.5583 17.9438 37.5583 16.358 37.5701 15.9893C37.5757 13.6195 38.472 11.5541 40.2347 9.86612C42.0143 8.16168 44.1699 7.29695 46.64 7.29629H46.6422C49.9249 7.29629 52.3349 8.92144 53.4493 10.273C53.7335 10.617 53.8982 11.0604 53.8982 11.541C53.8982 12.0974 53.6735 12.6015 53.3086 12.9665C53.1215 13.1539 52.8992 13.3025 52.6546 13.4037C52.4099 13.505 52.1476 13.5569 51.8828 13.5565C51.3319 13.5565 50.8049 13.3262 50.4698 12.9771C49.2192 11.6768 48.0301 11.2667 46.6413 11.2665C45.2528 11.2667 44.0954 11.73 43.1033 12.6821C42.1177 13.6115 41.6527 14.6683 41.6389 16.0125C41.6169 16.6006 41.6169 17.851 41.6381 18.4155C41.6491 19.7927 42.1121 20.8652 43.0951 21.8069C44.1197 22.7422 45.2827 23.2006 46.6415 23.2013C48.0003 23.2006 49.1636 22.7422 50.1968 21.7985C50.7358 21.2813 51.1186 20.7222 51.3546 20.0934C51.5441 19.5885 51.9404 18.5349 53.2806 18.0002C54.4099 17.5508 55.705 17.5991 55.705 17.5991ZM74.6296 18.0004C73.2894 18.5348 72.8934 19.588 72.7037 20.0934C72.4673 20.7221 72.0843 21.2816 71.5452 21.7985C70.5128 22.7421 69.3493 23.2004 67.9903 23.2011C66.6312 23.2004 65.4695 22.7421 64.4441 21.8069C63.4604 20.8652 62.9981 19.7929 62.9867 18.4155C62.966 17.8505 62.966 16.6006 62.9882 16.0125C63.0017 14.6682 63.466 13.6115 64.4521 12.6819C65.4437 11.7297 66.6014 11.2664 67.9903 11.2664C69.3786 11.2665 70.5682 11.6767 71.8183 12.9769C72.1535 13.3262 72.6807 13.5563 73.232 13.5563C73.7889 13.5563 74.2932 13.3308 74.6571 12.9664C74.8445 12.7794 74.9932 12.5571 75.0946 12.3125C75.1959 12.0678 75.2479 11.8056 75.2475 11.5408C75.2475 11.0605 75.0817 10.6172 74.7986 10.2727C73.6831 8.92094 71.2737 7.29597 67.9915 7.29597H67.9892C65.5186 7.29662 63.364 8.16135 61.5839 9.86579C59.8207 11.5538 58.9247 13.6192 58.9194 15.989C58.9068 16.3576 58.9068 17.9435 58.9194 18.4384C58.9342 20.8489 59.8309 22.9226 61.5839 24.6035L61.6067 24.6237C63.3933 26.1511 65.5406 26.925 67.9892 26.9259H67.9912C69.8731 26.925 71.5677 26.4734 73.0689 25.5658C73.0689 26.7182 72.3633 30.5904 68.0308 30.5904C66.7941 30.5904 65.9294 30.1186 65.6413 29.9461C63.9273 28.9192 62.1761 29.6836 60.9177 30.9427C60.9177 30.9427 63.3296 34.5602 68.0122 34.5602C70.3994 34.5602 72.5736 33.8521 74.295 32.1307C76.2097 30.2168 77.0532 27.8176 77.0532 25.0582V17.5986C77.0522 17.5991 75.7579 17.5508 74.6296 18.0004ZM98.4087 16.0054C98.4033 13.6205 97.5068 11.5546 95.745 9.86596C93.9647 8.16135 91.8088 7.29679 89.3378 7.29613H89.3357C86.8656 7.29679 84.711 8.16151 82.9302 9.86596C81.1679 11.5539 80.2719 13.6194 80.2659 15.9891C80.2539 16.3576 80.2539 17.9436 80.2659 18.4385C80.2811 20.8489 81.1784 22.9226 82.9302 24.6035L82.9541 24.6237C84.7398 26.1511 86.8873 26.9252 89.3357 26.926H89.3383C91.7846 26.9252 93.9329 26.1511 95.7214 24.6245L95.7451 24.6035C97.4971 22.9226 98.3934 20.8486 98.4087 18.4479C98.4209 17.9438 98.4209 16.3578 98.4087 16.0054ZM89.3372 23.2013C87.9787 23.2006 86.8164 22.7422 85.7907 21.8069C84.8077 20.865 84.3448 19.793 84.3341 18.4155C84.3124 17.8507 84.3124 16.6006 84.3347 16.0125C84.3489 14.6683 84.8133 13.6115 85.7986 12.6821C86.7909 11.7297 87.948 11.2665 89.337 11.2665C90.7256 11.2667 91.883 11.73 92.879 12.6865C93.8622 13.6116 94.3265 14.6685 94.3414 16.0255C94.3602 16.5756 94.3682 17.8201 94.3414 18.4313C94.3293 19.7932 93.8651 20.8665 92.8923 21.7987C91.8595 22.7422 90.6961 23.2008 89.3372 23.2013ZM34.3575 8.02381C32.2572 8.02759 30.3514 9.7888 30.3514 11.6778V26.7704C32.4517 26.7658 34.3575 25.0052 34.3575 23.1164V8.02381Z" fill="#4D4D4D"/>
</g>
<defs>
<clipPath id="clip0_629_58403">
<rect width="97.7011" height="34" fill="white" transform="translate(0.716797 0.570068)"/>
</clipPath>
</defs>
</svg>
